<?xml version="1.0" encoding="UTF-8" standalone="no"?>
<svg
   xmlns:dc="http://purl.org/dc/elements/1.1/"
   xmlns:cc="http://creativecommons.org/ns#"
   xmlns:rdf="http://www.w3.org/1999/02/22-rdf-syntax-ns#"
   xmlns:svg="http://www.w3.org/2000/svg"
   xmlns="http://www.w3.org/2000/svg"
   xmlns:sodipodi="http://sodipodi.sourceforge.net/DTD/sodipodi-0.dtd"
   xmlns:inkscape="http://www.inkscape.org/namespaces/inkscape"
   version="1.0"
   width="264.71945pt"
   height="275.07431pt"
   viewBox="0 0 264.71945 275.07431"
   preserveAspectRatio="xMidYMid meet"
   id="svg20"
   sodipodi:docname="logo.svg"
   inkscape:version="0.92.5 (2060ec1f9f, 2020-04-08)">
  <metadata
     id="metadata26">
    <rdf:RDF>
      <cc:Work
         rdf:about="">
        <dc:format>image/svg+xml</dc:format>
        <dc:type
           rdf:resource="http://purl.org/dc/dcmitype/StillImage" />
        <dc:title></dc:title>
      </cc:Work>
    </rdf:RDF>
  </metadata>
  <defs
     id="defs24" />
  <sodipodi:namedview
     pagecolor="#ffffff"
     bordercolor="#666666"
     borderopacity="1"
     objecttolerance="10"
     gridtolerance="10"
     guidetolerance="10"
     inkscape:pageopacity="0"
     inkscape:pageshadow="2"
     inkscape:window-width="1600"
     inkscape:window-height="835"
     id="namedview22"
     showgrid="false"
     inkscape:zoom="0.21947368"
     inkscape:cx="388"
     inkscape:cy="179.45945"
     inkscape:window-x="0"
     inkscape:window-y="0"
     inkscape:window-maximized="1"
     inkscape:current-layer="svg20" />
  <g
     transform="matrix(0.1,0,0,-0.1,-184,302.97972)"
     id="g18"
     style="fill:#000000;stroke:none">
    <path
       d="m 4470,3021 c -8,-4 -149,-55 -314,-112 l -298,-104 146,-3 145,-3 3,-145 3,-145 160,247 c 200,309 184,281 155,265 z"
       id="path2"
       style="fill:#0d7e10;fill-opacity:1"
       inkscape:connector-curvature="0" />
    <path
       d="m 3670,2581 c -255,-99 -498,-266 -751,-516 -70,-69 -129,-125 -132,-125 -4,0 -77,99 -163,221 -86,121 -162,223 -168,225 -6,2 -114,3 -239,2 l -227,-3 270,-382 269,-382 -79,-113 C 2305,1301 2135,1003 2022,755 1964,629 1840,311 1840,290 c 0,-16 370,-14 374,3 28,96 104,319 144,417 93,235 308,665 332,665 7,0 85,-102 173,-228 l 161,-227 h 238 c 189,0 238,3 232,13 -4,6 -21,32 -39,57 -190,270 -298,422 -400,565 -66,94 -124,176 -129,183 -9,15 26,65 159,232 190,238 433,478 585,578 82,53 109,73 100,71 -3,0 -48,-17 -100,-38 z"
       id="path4"
       style="fill:#0d7e10;fill-opacity:1"
       inkscape:connector-curvature="0" />
  </g>
</svg>
