<?xml version="1.0" encoding="UTF-8" standalone="no"?>
<svg
   xmlns:dc="http://purl.org/dc/elements/1.1/"
   xmlns:cc="http://creativecommons.org/ns#"
   xmlns:rdf="http://www.w3.org/1999/02/22-rdf-syntax-ns#"
   xmlns:svg="http://www.w3.org/2000/svg"
   xmlns="http://www.w3.org/2000/svg"
   xmlns:sodipodi="http://sodipodi.sourceforge.net/DTD/sodipodi-0.dtd"
   xmlns:inkscape="http://www.inkscape.org/namespaces/inkscape"
   version="1.0"
   width="865.66248pt"
   height="275.07431pt"
   viewBox="0 0 865.66248 275.07431"
   preserveAspectRatio="xMidYMid meet"
   id="svg20"
   sodipodi:docname="app.svg"
   inkscape:version="0.92.5 (2060ec1f9f, 2020-04-08)">
  <metadata
     id="metadata26">
    <rdf:RDF>
      <cc:Work
         rdf:about="">
        <dc:format>image/svg+xml</dc:format>
        <dc:type
           rdf:resource="http://purl.org/dc/dcmitype/StillImage" />
        <dc:title></dc:title>
      </cc:Work>
    </rdf:RDF>
  </metadata>
  <defs
     id="defs24" />
  <sodipodi:namedview
     pagecolor="#ffffff"
     bordercolor="#666666"
     borderopacity="1"
     objecttolerance="10"
     gridtolerance="10"
     guidetolerance="10"
     inkscape:pageopacity="0"
     inkscape:pageshadow="2"
     inkscape:window-width="1600"
     inkscape:window-height="835"
     id="namedview22"
     showgrid="false"
     inkscape:zoom="0.21947368"
     inkscape:cx="571.41666"
     inkscape:cy="179.45945"
     inkscape:window-x="0"
     inkscape:window-y="0"
     inkscape:window-maximized="1"
     inkscape:current-layer="svg20" />
  <g
     transform="matrix(0.1,0,0,-0.1,-46.437502,302.97972)"
     id="g18"
     style="fill:#000000;stroke:none">
    <path
       d="m 4470,3021 c -8,-4 -149,-55 -314,-112 l -298,-104 146,-3 145,-3 3,-145 3,-145 160,247 c 200,309 184,281 155,265 z"
       id="path2"
       style="fill:#0d7e10;fill-opacity:1"
       inkscape:connector-curvature="0" />
    <path
       d="m 3670,2581 c -255,-99 -498,-266 -751,-516 -70,-69 -129,-125 -132,-125 -4,0 -77,99 -163,221 -86,121 -162,223 -168,225 -6,2 -114,3 -239,2 l -227,-3 270,-382 269,-382 -79,-113 C 2305,1301 2135,1003 2022,755 1964,629 1840,311 1840,290 c 0,-16 370,-14 374,3 28,96 104,319 144,417 93,235 308,665 332,665 7,0 85,-102 173,-228 l 161,-227 h 238 c 189,0 238,3 232,13 -4,6 -21,32 -39,57 -190,270 -298,422 -400,565 -66,94 -124,176 -129,183 -9,15 26,65 159,232 190,238 433,478 585,578 82,53 109,73 100,71 -3,0 -48,-17 -100,-38 z"
       id="path4"
       style="fill:#0d7e10;fill-opacity:1"
       inkscape:connector-curvature="0" />
    <path
       d="m 943,2400 c -198,-34 -317,-120 -394,-284 -21,-46 -39,-90 -39,-98 0,-10 42,-22 158,-42 86,-15 164,-30 172,-32 11,-3 20,7 28,28 17,48 68,105 115,131 36,18 58,22 147,22 92,0 111,-3 154,-25 65,-33 84,-61 98,-143 9,-56 9,-70 -3,-82 -21,-20 -123,-48 -343,-94 -290,-62 -385,-100 -466,-187 -146,-159 -140,-424 14,-577 183,-183 517,-182 759,1 37,29 70,52 72,52 2,0 13,-34 26,-75 l 22,-75 h 193 193 l -24,53 c -56,122 -58,137 -65,642 -8,544 -9,549 -91,640 -54,58 -155,116 -234,134 -161,35 -335,39 -492,11 z m 445,-824 c 5,-62 -15,-232 -32,-264 -59,-114 -242,-191 -361,-152 -79,26 -145,113 -145,190 0,48 11,73 53,118 38,40 94,61 267,101 74,17 149,35 165,40 43,13 50,9 53,-33 z"
       id="path6"
       style="fill:#0d7e10;fill-opacity:1"
       inkscape:connector-curvature="0" />
    <path
       d="m 4903,2406 c -101,-17 -142,-30 -216,-69 -79,-41 -149,-114 -189,-194 -31,-64 -33,-74 -33,-173 0,-118 13,-162 71,-241 80,-109 246,-179 624,-264 152,-35 204,-58 224,-100 20,-42 20,-51 -3,-101 -15,-34 -30,-47 -77,-70 -51,-25 -73,-29 -166,-33 -141,-4 -204,14 -269,79 -26,26 -52,64 -59,86 -7,21 -16,43 -20,47 -4,4 -91,-5 -194,-20 l -187,-28 5,-27 c 8,-42 46,-116 87,-171 80,-106 201,-180 357,-219 118,-30 368,-32 487,-5 226,52 378,186 426,377 19,76 20,91 9,152 -24,134 -93,228 -209,288 -68,34 -216,81 -381,121 -311,74 -370,103 -370,177 0,86 99,128 284,120 78,-3 110,-9 141,-25 51,-27 90,-68 109,-115 15,-35 17,-36 48,-28 18,4 99,20 181,35 169,31 159,19 103,135 -62,129 -192,222 -356,255 -107,22 -327,27 -427,11 z"
       id="path8"
       style="fill:#0d7e10;fill-opacity:1"
       inkscape:connector-curvature="0" />
    <path
       d="M 3750,1655 V 920 h 190 190 v 725 c 0,399 0,728 0,733 0,4 -85,8 -190,10 l -190,2 z"
       id="path10"
       style="fill:#0d7e10;fill-opacity:1"
       inkscape:connector-curvature="0" />
    <path
       d="M 6020,1615 V 900 h 140 140 v 270 270 h 143 c 232,0 349,15 432,54 154,73 235,211 235,402 0,227 -132,394 -336,424 -38,5 -223,10 -411,10 h -343 z m 683,446 c 109,-53 141,-199 65,-296 -42,-53 -89,-67 -269,-78 -91,-6 -173,-8 -182,-4 -15,6 -17,28 -17,200 0,107 3,197 8,201 4,5 84,6 177,4 154,-3 175,-6 218,-27 z"
       id="path12"
       inkscape:connector-curvature="0" />
    <path
       d="m 7721,1938 c -28,-14 -59,-42 -87,-81 l -44,-59 v 71 71 H 7460 7330 V 1420 900 h 139 139 l 4,318 c 4,274 7,324 23,367 26,73 50,101 100,120 38,15 52,16 92,6 27,-7 58,-19 70,-26 20,-13 22,-12 33,18 28,75 70,201 70,208 0,4 -25,17 -55,28 -75,28 -166,28 -224,-1 z"
       id="path14"
       inkscape:connector-curvature="0" />
    <path
       d="m 8436,1944 c -172,-42 -307,-174 -360,-353 -21,-71 -21,-256 -1,-334 35,-135 118,-244 231,-304 97,-52 165,-67 289,-67 173,1 279,46 390,166 98,106 136,209 136,373 0,164 -38,268 -137,374 -65,70 -148,120 -233,143 -81,21 -233,22 -315,2 z m 228,-216 c 25,-8 61,-32 93,-63 63,-62 83,-120 83,-246 0,-194 -93,-309 -248,-309 -159,0 -252,115 -252,309 0,125 19,182 83,245 72,72 147,92 241,64 z"
       id="path16"
       inkscape:connector-curvature="0" />
  </g>
</svg>
